<svg width="252" height="250" viewBox="0 0 252 250" fill="none" xmlns="http://www.w3.org/2000/svg">
<path fill-rule="evenodd" clip-rule="evenodd" d="M147.287 0.664696C147.37 0.655776 147.485 0.663073 147.507 0.664474L147.511 0.664696C159.079 -0.546111 172.908 8.42031 172.83 23.5031C172.823 25.0151 172.676 26.5884 172.373 28.2192C170.768 36.8442 165.798 41.3358 160.725 45.9133C157.359 48.95 153.731 51.5787 150.324 54.0478C148.133 55.6356 146.033 57.1573 144.152 58.6791C138.677 63.1093 134.669 68.0744 130.938 74.8056C128.257 79.642 124.793 86.8683 124.77 92.6844C124.755 96.9189 126.566 100.405 131.833 101.675C140.443 103.753 151.58 97.6348 158.932 93.1628C167.95 87.6851 173.997 82.7593 179.312 75.2455C181.686 71.8927 183.559 68.5218 185.38 65.2462C188.018 60.5006 190.544 55.9549 194.318 51.9536C208.872 36.5158 234.53 45.8291 234.432 67.2841C234.431 67.623 234.423 67.9649 234.408 68.3099C233.903 80.3397 224.864 87.201 216.714 90.2575C211.933 92.0532 207.501 93.0761 202.604 93.8415C201.573 94.0026 200.476 94.1538 199.337 94.3107L199.337 94.3108C195.672 94.8158 191.571 95.381 187.825 96.53C178.451 99.405 170.005 105.548 163.858 112.208C160.939 115.372 157.706 118.971 154.899 123.183C152.701 126.484 151.038 130.382 151.021 133.884C151.009 136.969 152.273 139.746 155.572 141.542C163.034 145.607 174.396 141.996 181.775 139.077C188.644 136.361 195.095 131.99 199.693 127.655C200.534 126.862 201.419 125.998 202.348 125.092L202.348 125.091C210.762 116.878 222.753 105.173 237.99 111.083C244.115 113.457 249.438 119.568 251.205 126.088C251.891 128.618 252.109 131.153 251.951 133.598C251.925 133.999 251.889 134.398 251.844 134.795C251.266 139.803 249.135 144.354 246.276 147.596C241.63 152.867 235.539 155.477 227.241 155.882C221.192 156.178 216.053 155.495 211.118 154.839C209.008 154.559 206.935 154.283 204.844 154.091C188.56 152.598 175.346 159.604 163.858 166.857C158.294 170.37 152.741 174.327 147.957 179.174C144.138 183.048 138.199 189.205 138.478 195.771C138.49 196.059 138.515 196.348 138.552 196.638C139.021 200.296 141.373 202.428 143.927 204.699C144.049 204.808 144.174 204.919 144.301 205.031C146.53 207.005 149.29 209.45 149.525 212.762C149.543 213.021 149.547 213.276 149.537 213.527C149.531 213.662 149.522 213.797 149.509 213.93C149.063 218.424 144.237 221.734 140.789 223.967C139.347 224.902 137.893 225.854 136.426 226.815C117.742 239.054 96.8959 252.709 68.8945 248.827C37.1223 244.421 13.038 221.782 4.39336 192.612C2.18124 185.144 0.91666 177.329 0.91797 168.584C0.918179 166.001 1.02889 163.336 1.25833 160.576C2.91906 140.605 10.8449 121.935 20.071 103.017C20.3404 102.464 20.6127 101.908 20.8867 101.349L20.8883 101.345C25.6871 91.5437 31.0329 80.6251 31.04 69.3036C31.0416 65.7197 30.5081 62.0954 29.2528 58.4534C28.5818 56.5043 27.836 54.6599 27.0943 52.8255L27.0943 52.8255C25.9028 49.8787 24.7218 46.9581 23.8781 43.6712C23.1284 40.7506 22.7826 37.9293 22.7844 35.2406C22.7882 26.4706 26.4901 19.1124 31.9414 14.3259C46.4759 1.56252 65.2002 11.755 69.3434 26.1963C69.9469 28.2993 70.2094 30.6401 70.2035 33.011C70.195 36.7626 69.5142 40.5902 68.4481 43.6712C66.6055 49.0008 63.6264 53.1492 60.4787 57.5323L60.4786 57.5324C58.0065 60.9747 55.4304 64.5618 53.2194 68.9796C51.0141 73.3902 49.1571 78.5416 48.5168 83.0896C48.2486 84.992 48.0919 86.9581 48.0891 88.9044C48.0775 97.9768 51.4121 106.615 62.4037 106.375C68.5928 106.24 74.6544 103.088 79.6488 100.105C94.7892 91.0581 107.707 79.7567 116.828 64.4937C119.813 59.4943 122.509 53.4671 123.77 47.4718C124.657 43.2544 124.94 39.0671 125.25 34.4829C125.399 32.2759 125.554 29.9768 125.786 27.5381C127.204 12.6431 134.355 2.31807 147.287 0.664696ZM177.075 188.577C170.879 193.961 158.878 206.278 167.221 215.676C172.034 221.1 184.734 225.537 193.202 226.205C198.861 226.65 204.002 225.702 208.309 223.711C208.656 223.551 208.997 223.383 209.333 223.21C216.892 219.303 221.627 212.063 221.65 203.58C221.667 197.217 219.221 191.617 216.498 188.349C212.083 183.051 203.892 179.204 195.895 179.839C190.423 180.272 185.42 182.497 181.124 185.439C180.927 185.574 180.73 185.711 180.536 185.849C179.321 186.712 178.165 187.63 177.075 188.577Z" fill="#00C9A5"/>
</svg>
